# xmcd
#
# Track frame offsets: 
#        150
#        15506
#        27558
#        44245
#        60189
#        75354
#        90172
#        106236
#        119645
#        134616
#        161673
#        173868
#        187144
#        199131
#        215045
#        226945
#
# Disc length: 3328 seconds
#
# Revision: 1
# Processed by: cddbd v1.5.2PL0 Copyright (c) Steve Scherf et al.
# Submitted via: ExactAudioCopy v0.90b4
#
DISCID=db0cfe10
DTITLE=Väsen - Väsen Street
DYEAR=2009
DGENRE=Folk
TTITLE0=Rob's Polska
TTITLE1=Skräplandschottis
TTITLE2=Botanisten (The Botanist)
TTITLE3=Gubben Wester
TTITLE4=Polska Till Wik
TTITLE5=Garageschottis
TTITLE6=The Late Waltz
TTITLE7=Asko Pasko Polska
TTITLE8=Väsen Street
TTITLE9=Absolute Swedish
TTITLE10=Mördar Cajsas Polska
TTITLE11=Hagsätra Brudmarsch
TTITLE12=Lille Skutt
TTITLE13=Tunggus Och Lintas
TTITLE14=Eklunda Polska Nr 3
TTITLE15=Yoko
EXTD=
EXTT0=
EXTT1=
EXTT2=
EXTT3=
EXTT4=
EXTT5=
EXTT6=
EXTT7=
EXTT8=
EXTT9=
EXTT10=
EXTT11=
EXTT12=
EXTT13=
EXTT14=
EXTT15=
PLAYORDER=
